# xmcd
#
# Track frame offsets: 
#        150
#        15894
#        23708
#        34803
#        57515
#        68133
#        85274
#        94529
#        105484
#        117210
#        138657
#        145700
#        158293
#        171260
#        185413
#        201511
#        213019
#        233387
#
# Disc length: 3185 seconds
#
# Revision: 0
# Processed by: cddbd v1.5.2PL0 Copyright (c) Steve Scherf et al.
# Submitted via: ExactAudioCopy v0.95b4
#
DISCID=e00c6f12
DTITLE=Waylon Jennings - Waylon - Littlefield 1989
DYEAR=1989
DGENRE=Country
TTITLE0=Don't You Think This Outlaw Country Bit
TTITLE1=Working Without A Net
TTITLE2=Gemini Song
TTITLE3=Ramblin' Man
TTITLE4=Littlefield
TTITLE5=Deep In The West
TTITLE6=I May Be Used
TTITLE7=Amanda
TTITLE8=Mama's Don't Let Your Babies Grow Up To Be Cowboys
TTITLE9=Me And Bobby McGee
TTITLE10=Bob Wills Is Still The King
TTITLE11=Luckenbach, Texas
TTITLE12=Rose In Paradise
TTITLE13=America
TTITLE14=Good Hearted Woman
TTITLE15=You'll Never Take Texas Out Of Me
TTITLE16=I've Always Been Crazy
TTITLE17=Westwood One Outro
EXTD=
EXTT0=
EXTT1=
EXTT2=
EXTT3=
EXTT4=
EXTT5=
EXTT6=
EXTT7=
EXTT8=
EXTT9=
EXTT10=
EXTT11=
EXTT12=
EXTT13=
EXTT14=
EXTT15=
EXTT16=
EXTT17=
PLAYORDER=
